<?xml version="1.0" encoding="utf-8"?>
<!-- Svg Vector Icons : http://www.onlinewebfonts.com/icon -->
<!DOCTYPE svg PUBLIC "-//W3C//DTD SVG 1.1//EN" "http://www.w3.org/Graphics/SVG/1.1/DTD/svg11.dtd">
<svg version="1.1" xmlns="http://www.w3.org/2000/svg" xmlns:xlink="http://www.w3.org/1999/xlink" x="0px" y="0px" viewBox="0 0 1000 1000" enable-background="new 0 0 1000 1000" xml:space="preserve">
<metadata> Svg Vector Icons : http://www.onlinewebfonts.com/icon </metadata>
<g><path d="M805.4,186.6c-29.8-25.8-75.4-23.8-101.2,6c-25.8,29.8-23.8,75.4,6,101.2c69.4,59.5,107.1,146.8,107.1,238.1c0,172.6-140.8,315.4-315.4,315.4c-172.6,0-315.4-140.8-315.4-315.4c0-91.3,39.7-176.6,107.1-238.1c29.8-25.8,33.7-71.4,6-101.2c-25.8-29.8-71.4-33.7-101.2-6C99.2,273.8,41.6,400.8,41.6,531.7C41.6,785.7,248,990,499.9,990c251.9,0,458.3-206.3,458.3-458.3C962.1,400.8,904.6,273.8,805.4,186.6z"/><path d="M575.3,579.4V81.4c0-39.7-31.7-71.4-71.4-71.4c-39.7,0-71.4,31.7-71.4,71.4v497.9c0,39.7,31.7,71.4,71.4,71.4C543.5,650.8,575.3,621,575.3,579.4z"/></g>
</svg>